<svg width="16" height="16" viewBox="0 0 16 16" fill="none" xmlns="http://www.w3.org/2000/svg">
<rect width="16" height="16" fill="#F5F5F5"/>
<g clip-path="url(#clip0_2029_6844)">
<path fill-rule="evenodd" clip-rule="evenodd" d="M8 0C12.4183 0 16 3.58172 16 8C16 12.4183 12.4183 16 8 16C3.58172 16 0 12.4183 0 8C0 3.58172 3.58172 0 8 0ZM9.37629 6.19643L8.43835 4.25307C8.38442 4.14741 8.29379 4.06663 8.18463 4.02693C8.07547 3.98726 7.95581 3.99154 7.84957 4.03896C7.74336 4.08637 7.65838 4.17342 7.6117 4.28267L6.80808 6.17747C6.74303 6.33218 6.60311 6.43958 6.44073 6.45936L4.40183 6.70685C4.28365 6.72219 4.17588 6.7843 4.10129 6.88009C4.02666 6.97585 3.99105 7.09775 4.00192 7.2201C4.01279 7.34246 4.06937 7.45568 4.15962 7.53582L5.61762 8.80298C5.68093 8.85799 5.72862 8.92962 5.75571 9.0103C5.78276 9.09099 5.78822 9.17769 5.77144 9.2613L5.33865 11.4297C5.31432 11.5502 5.33641 11.6757 5.40024 11.7797C5.46407 11.8837 5.56464 11.958 5.68064 11.9868C5.79664 12.0156 5.91899 11.9968 6.02172 11.9342L7.76902 10.8683C7.83883 10.8268 7.91802 10.8049 7.99863 10.8049C8.07924 10.8049 8.15843 10.8268 8.22824 10.8683L9.97784 11.9259C10.0806 11.9885 10.2029 12.0073 10.3189 11.9785C10.4349 11.9497 10.5355 11.8754 10.5993 11.7714C10.6632 11.6675 10.6853 11.5419 10.6609 11.4214L10.2258 9.2613C10.209 9.17769 10.2145 9.09099 10.2416 9.0103C10.2687 8.92961 10.3163 8.85799 10.3796 8.80298L11.8399 7.52043C11.9301 7.44055 11.9867 7.32775 11.998 7.20574C12.0092 7.0837 11.9741 6.96195 11.9001 6.86604C11.8261 6.77013 11.719 6.70756 11.6012 6.69145L9.72989 6.4546C9.5776 6.4349 9.44494 6.33803 9.37629 6.19643Z" fill="#0080A3"/>
</g>
<defs>
<clipPath id="clip0_2029_6844">
<rect width="16" height="16" fill="white"/>
</clipPath>
</defs>
</svg>
